<?xml version="1.0" encoding="UTF-8" standalone="no"?>
<!DOCTYPE svg PUBLIC "-//W3C//DTD SVG 1.1//EN" "http://www.w3.org/Graphics/SVG/1.1/DTD/svg11.dtd">
<svg width="100%" height="100%" viewBox="0 0 649 123" version="1.1" xmlns="http://www.w3.org/2000/svg" xmlns:xlink="http://www.w3.org/1999/xlink" xml:space="preserve" xmlns:serif="http://www.serif.com/" style="fill-rule:evenodd;clip-rule:evenodd;stroke-linejoin:round;stroke-miterlimit:2;">
    <g transform="matrix(1,0,0,1,-730.056,-2245.76)">
        <g>
            <g transform="matrix(4.16676,0,0,4.16676,730.056,2244.63)">
                <path d="M127,17C125.895,17 125,16.105 125,15C125,13.895 125.895,13 127,13L127,17ZM155.068,13.586C155.849,14.367 155.849,15.634 155.068,16.415L142.34,29.142C141.559,29.923 140.293,29.923 139.512,29.142C138.731,28.361 138.731,27.095 139.512,26.314L150.826,15L139.512,3.687C138.731,2.905 138.731,1.639 139.512,0.858C140.293,0.077 141.559,0.077 142.34,0.858L155.068,13.586ZM127,13L153.654,13.001L153.654,17.001L127,17L127,13Z" style="fill:rgb(32,44,57);fill-rule:nonzero;"/>
            </g>
            <g transform="matrix(4.16676,0,0,4.16676,730.056,2244.63)">
                <path d="M28.654,17C29.759,17 30.654,16.105 30.654,15C30.654,13.895 29.759,13 28.654,13L28.654,17ZM0.586,13.586C-0.195,14.367 -0.195,15.634 0.586,16.415L13.314,29.142C14.095,29.923 15.361,29.923 16.142,29.142C16.923,28.361 16.923,27.095 16.142,26.314L4.828,15L16.142,3.687C16.923,2.905 16.923,1.639 16.142,0.858C15.361,0.077 14.095,0.077 13.314,0.858L0.586,13.586ZM28.654,13L2,13.001L2,17.001L28.654,17L28.654,13Z" style="fill:rgb(32,44,57);fill-rule:nonzero;"/>
            </g>
        </g>
    </g>
</svg>
