<?xml version="1.0" encoding="UTF-8" standalone="no"?><!DOCTYPE svg PUBLIC "-//W3C//DTD SVG 1.1//EN" "http://www.w3.org/Graphics/SVG/1.1/DTD/svg11.dtd"><svg width="100%" height="100%" viewBox="0 0 5 5" version="1.1" xmlns="http://www.w3.org/2000/svg" xmlns:xlink="http://www.w3.org/1999/xlink" xml:space="preserve" xmlns:serif="http://www.serif.com/" style="fill-rule:evenodd;clip-rule:evenodd;stroke-linejoin:round;stroke-miterlimit:2;"><g><rect x="-12.713" y="-12.018" width="25" height="25" style="fill:url(#_Radial1);fill-rule:nonzero;"/><path d="M-0.633,7.647c-0,1.158 -0.939,2.095 -2.097,2.095c-1.157,0 -2.094,-0.937 -2.094,-2.095c-0,-1.158 0.937,-2.096 2.094,-2.096c1.158,0 2.097,0.938 2.097,2.096Z" style="fill:#494d56;fill-rule:nonzero;"/><path d="M4.298,7.675c-0,1.156 -0.938,2.095 -2.094,2.095c-1.159,0 -2.096,-0.939 -2.096,-2.095c-0,-1.159 0.937,-2.097 2.096,-2.097c1.156,0 2.094,0.938 2.094,2.097Z" style="fill:#494d56;fill-rule:nonzero;"/><path d="M9.365,7.662c-0,1.157 -0.938,2.096 -2.096,2.096c-1.156,0 -2.095,-0.939 -2.095,-2.096c-0,-1.157 0.939,-2.097 2.095,-2.097c1.158,0 2.096,0.94 2.096,2.097Z" style="fill:#494d56;fill-rule:nonzero;"/><path d="M-2.73,-0.027c-1.214,0 -2.202,0.988 -2.202,2.203c-0,1.215 0.988,2.203 2.202,2.203c1.216,0 2.205,-0.988 2.205,-2.203c-0,-1.215 -0.989,-2.203 -2.205,-2.203Zm-0,0.107c1.158,-0 2.097,0.938 2.097,2.096c-0,1.158 -0.939,2.096 -2.097,2.096c-1.157,0 -2.094,-0.938 -2.094,-2.096c-0,-1.158 0.937,-2.096 2.094,-2.096Z" style="fill:#4f525c;fill-rule:nonzero;"/><path d="M2.204,0c-1.215,0 -2.204,0.988 -2.204,2.203c0,1.215 0.989,2.203 2.204,2.203c1.213,0 2.202,-0.988 2.202,-2.203c-0,-1.215 -0.989,-2.203 -2.202,-2.203Zm-0,0.107c1.156,0 2.094,0.938 2.094,2.096c-0,1.156 -0.938,2.096 -2.094,2.096c-1.159,0 -2.096,-0.94 -2.096,-2.096c-0,-1.158 0.937,-2.096 2.096,-2.096Z" style="fill:#4f525c;fill-rule:nonzero;"/><path d="M0.935,3.057c0.199,0.012 0.393,-0.017 0.574,-0.099c0.082,-0.036 0.156,-0.08 0.231,-0.139c-0.087,-0.002 -0.166,-0.023 -0.239,-0.059c-0.123,-0.063 -0.21,-0.161 -0.262,-0.294c-0.012,-0.029 -0.012,-0.029 0.02,-0.027c0.088,0.008 0.153,0.006 0.202,-0.013c-0.047,-0.017 -0.092,-0.026 -0.13,-0.05c-0.183,-0.102 -0.281,-0.259 -0.297,-0.47c-0.002,-0.024 0.005,-0.027 0.027,-0.016c0.064,0.036 0.135,0.05 0.216,0.058c-0.035,-0.031 -0.066,-0.056 -0.093,-0.084c-0.152,-0.164 -0.188,-0.424 -0.087,-0.624c0.014,-0.027 0.019,-0.027 0.037,-0.006c0.257,0.296 0.576,0.475 0.961,0.537c0.039,0.007 0.082,0.007 0.122,0.016c0.028,0.004 0.03,-0.009 0.027,-0.029c-0.04,-0.232 0.068,-0.461 0.273,-0.576c0.209,-0.122 0.48,-0.084 0.648,0.08c0.02,0.016 0.039,0.02 0.061,0.014c0.103,-0.023 0.2,-0.061 0.291,-0.114c0.008,-0.002 0.014,-0.006 0.023,-0.015c-0.039,0.131 -0.117,0.228 -0.232,0.305c0.106,-0.01 0.202,-0.042 0.297,-0.077c0.002,0.013 -0.008,0.021 -0.014,0.031c-0.064,0.088 -0.139,0.166 -0.228,0.234c-0.017,0.012 -0.021,0.023 -0.021,0.044c0.007,0.404 -0.122,0.763 -0.38,1.076c-0.242,0.284 -0.551,0.457 -0.92,0.515c-0.39,0.061 -0.757,-0.003 -1.095,-0.212c-0.004,-0.004 -0.009,-0.006 -0.012,-0.006Z" style="fill:#444851;"/><path d="M7.269,-0.013c-1.215,0 -2.202,0.989 -2.202,2.203c0,1.215 0.987,2.204 2.202,2.204c1.215,0 2.203,-0.989 2.203,-2.204c-0,-1.214 -0.988,-2.203 -2.203,-2.203Zm0,0.108c1.158,0 2.096,0.939 2.096,2.095c-0,1.159 -0.938,2.096 -2.096,2.096c-1.156,0 -2.095,-0.937 -2.095,-2.096c-0,-1.156 0.939,-2.095 2.095,-2.095Z" style="fill:#4f525c;fill-rule:nonzero;"/></g><defs><radialGradient id="_Radial1" cx="0" cy="0" r="1" gradientUnits="userSpaceOnUse" gradientTransform="matrix(32.6915,0,0,32.6915,-0.213,0.482)"><stop offset="0" style="stop-color:#fff;stop-opacity:1"/><stop offset="0.3" style="stop-color:#fafbfc;stop-opacity:1"/><stop offset="0.5" style="stop-color:#dfdfde;stop-opacity:1"/><stop offset="0.6" style="stop-color:#c6c6c6;stop-opacity:1"/><stop offset="0.7" style="stop-color:#a6a6a7;stop-opacity:1"/><stop offset="0.8" style="stop-color:#7c7c7c;stop-opacity:1"/><stop offset="0.9" style="stop-color:#444545;stop-opacity:1"/><stop offset="1" style="stop-color:#030404;stop-opacity:1"/></radialGradient></defs></svg>