<?xml version="1.0" encoding="UTF-8" standalone="no"?><!DOCTYPE svg PUBLIC "-//W3C//DTD SVG 1.1//EN" "http://www.w3.org/Graphics/SVG/1.1/DTD/svg11.dtd"><svg width="100%" height="100%" viewBox="0 0 5 5" version="1.1" xmlns="http://www.w3.org/2000/svg" xmlns:xlink="http://www.w3.org/1999/xlink" xml:space="preserve" xmlns:serif="http://www.serif.com/" style="fill-rule:evenodd;clip-rule:evenodd;stroke-linejoin:round;stroke-miterlimit:2;"><g><rect x="-17.78" y="-12.005" width="25" height="25" style="fill:url(#_Radial1);fill-rule:nonzero;"/><path d="M-0.769,7.688c-0,1.156 -0.938,2.095 -2.094,2.095c-1.159,-0 -2.096,-0.939 -2.096,-2.095c-0,-1.159 0.937,-2.097 2.096,-2.097c1.156,0 2.094,0.938 2.094,2.097Z" style="fill:#494d56;fill-rule:nonzero;"/><path d="M4.298,7.675c-0,1.157 -0.938,2.096 -2.096,2.096c-1.156,-0 -2.095,-0.939 -2.095,-2.096c-0,-1.157 0.939,-2.097 2.095,-2.097c1.158,0 2.096,0.94 2.096,2.097Z" style="fill:#494d56;fill-rule:nonzero;"/><path d="M-2.863,0.013c-1.215,-0 -2.204,0.988 -2.204,2.203c-0,1.215 0.989,2.203 2.204,2.203c1.213,-0 2.202,-0.988 2.202,-2.203c-0,-1.215 -0.989,-2.203 -2.202,-2.203Zm-0,0.107c1.156,-0 2.094,0.938 2.094,2.096c-0,1.156 -0.938,2.096 -2.094,2.096c-1.159,0 -2.096,-0.94 -2.096,-2.096c-0,-1.158 0.937,-2.096 2.096,-2.096Z" style="fill:#4f525c;fill-rule:nonzero;"/><path d="M2.202,0c-1.215,0 -2.202,0.989 -2.202,2.203c0,1.215 0.987,2.204 2.202,2.204c1.215,-0 2.203,-0.989 2.203,-2.204c-0,-1.214 -0.988,-2.203 -2.203,-2.203Zm-0,0.108c1.158,-0 2.096,0.939 2.096,2.095c-0,1.159 -0.938,2.096 -2.096,2.096c-1.156,-0 -2.095,-0.937 -2.095,-2.096c-0,-1.156 0.939,-2.095 2.095,-2.095Z" style="fill:#4f525c;fill-rule:nonzero;"/><path d="M3.077,2.944c-0.002,0.105 -0.029,0.134 -0.135,0.134l-1.48,0c-0.104,0 -0.133,-0.029 -0.133,-0.134c-0,-0.274 0.001,-0.551 -0.004,-0.826c-0,-0.079 0.022,-0.095 0.094,-0.093c0.103,0.009 0.105,0.004 0.094,0.105c-0.041,0.349 0.202,0.69 0.546,0.757c0.356,0.067 0.711,-0.145 0.809,-0.486c0.029,-0.107 0.038,-0.221 0.016,-0.325c-0.008,-0.041 0.002,-0.047 0.037,-0.047c0.156,-0.013 0.156,-0.015 0.156,0.147l-0,0.768Zm-0.873,-1.18c0.236,-0 0.439,0.204 0.435,0.439c-0.001,0.243 -0.203,0.442 -0.443,0.438c-0.238,-0.004 -0.439,-0.206 -0.433,-0.441c0.005,-0.239 0.205,-0.436 0.441,-0.436Zm0.648,-0.435c0.225,-0 0.225,-0 0.225,0.225c-0,0.219 -0,0.219 -0.221,0.219c-0.222,-0 -0.222,-0 -0.222,-0.223c-0,-0.221 -0,-0.221 0.218,-0.221Zm0.184,-0.256l-1.666,-0c-0.198,-0 -0.301,0.105 -0.301,0.302l0,1.663c0,0.192 0.106,0.296 0.291,0.296l1.676,-0c0.193,-0 0.3,-0.104 0.3,-0.298l-0,-1.668c-0,-0.19 -0.107,-0.295 -0.3,-0.295Z" style="fill:#444851;"/></g><defs><radialGradient id="_Radial1" cx="0" cy="0" r="1" gradientUnits="userSpaceOnUse" gradientTransform="matrix(32.6915,0,0,32.6915,-5.28,0.495)"><stop offset="0" style="stop-color:#fff;stop-opacity:1"/><stop offset="0.3" style="stop-color:#fafbfc;stop-opacity:1"/><stop offset="0.5" style="stop-color:#dfdfde;stop-opacity:1"/><stop offset="0.6" style="stop-color:#c6c6c6;stop-opacity:1"/><stop offset="0.7" style="stop-color:#a6a6a7;stop-opacity:1"/><stop offset="0.8" style="stop-color:#7c7c7c;stop-opacity:1"/><stop offset="0.9" style="stop-color:#444545;stop-opacity:1"/><stop offset="1" style="stop-color:#030404;stop-opacity:1"/></radialGradient></defs></svg>