<?xml version="1.0" encoding="UTF-8" standalone="no"?>
<!DOCTYPE svg PUBLIC "-//W3C//DTD SVG 1.1//EN" "http://www.w3.org/Graphics/SVG/1.1/DTD/svg11.dtd">
<svg width="100%" height="100%" viewBox="0 0 200 153" version="1.1" xmlns="http://www.w3.org/2000/svg" xmlns:xlink="http://www.w3.org/1999/xlink" xml:space="preserve" xmlns:serif="http://www.serif.com/" style="fill-rule:evenodd;clip-rule:evenodd;stroke-linejoin:round;stroke-miterlimit:2;">
    <g transform="matrix(1,0,0,1,-630.371,-2576.75)">
        <g transform="matrix(6.15599,0,0,6.15599,625.894,2575.63)">
            <path d="M15.966,0.182L15.966,7.545C15.966,9.636 15.557,11.773 14.739,13.955C13.943,16.114 12.875,18.159 11.534,20.091C10.193,22 8.727,23.625 7.136,24.966L0.727,21.182C1.864,19.386 2.864,17.398 3.727,15.216C4.614,13.034 5.057,10.5 5.057,7.614L5.057,0.182L15.966,0.182ZM33.114,0.182L33.114,7.545C33.114,9.636 32.705,11.773 31.886,13.955C31.091,16.114 30.023,18.159 28.682,20.091C27.341,22 25.864,23.625 24.25,24.966L17.841,21.182C19,19.386 20.011,17.398 20.875,15.216C21.761,13.034 22.205,10.5 22.205,7.614L22.205,0.182L33.114,0.182Z" style="fill:rgb(174,235,152);fill-rule:nonzero;"/>
        </g>
    </g>
</svg>
