<?xml version="1.0" encoding="UTF-8" standalone="no"?><!DOCTYPE svg PUBLIC "-//W3C//DTD SVG 1.1//EN" "http://www.w3.org/Graphics/SVG/1.1/DTD/svg11.dtd"><svg width="100%" height="100%" viewBox="0 0 471 64" version="1.1" xmlns="http://www.w3.org/2000/svg" xmlns:xlink="http://www.w3.org/1999/xlink" xml:space="preserve" xmlns:serif="http://www.serif.com/" style="fill-rule:evenodd;clip-rule:evenodd;stroke-linejoin:round;stroke-miterlimit:2;"><g transform="matrix(0.24,0,0,0.24,-105.362,-194.781)"><g><g transform="matrix(1,0,0,1,-367.653,29.9806)"><g transform="matrix(333.814,0,0,333.814,814.423,1035.17)"><path d="M0.297,-0.415C0.297,-0.396 0.297,-0.089 0.294,-0.06C0.293,-0.048 0.281,-0.036 0.261,-0.036L0.193,-0.036C0.187,-0.036 0.186,-0.033 0.186,-0.026L0.186,-0.007C0.186,-0.001 0.187,0.003 0.195,0.003C0.209,0.003 0.251,-0 0.347,-0C0.445,-0 0.477,0.003 0.487,0.003C0.496,0.003 0.497,-0 0.497,-0.005L0.497,-0.026C0.497,-0.033 0.496,-0.036 0.487,-0.036L0.424,-0.036C0.4,-0.036 0.392,-0.051 0.39,-0.076C0.389,-0.093 0.389,-0.373 0.389,-0.387L0.389,-0.672L0.417,-0.672C0.466,-0.672 0.56,-0.67 0.59,-0.655C0.623,-0.639 0.653,-0.562 0.661,-0.543C0.664,-0.536 0.665,-0.535 0.669,-0.536L0.685,-0.54C0.69,-0.541 0.692,-0.543 0.691,-0.548C0.683,-0.592 0.664,-0.716 0.662,-0.728C0.66,-0.741 0.658,-0.744 0.653,-0.744C0.649,-0.744 0.646,-0.743 0.641,-0.74L0.622,-0.728C0.605,-0.718 0.592,-0.715 0.57,-0.714C0.521,-0.712 0.478,-0.708 0.369,-0.708L0.321,-0.708C0.227,-0.708 0.185,-0.712 0.132,-0.714C0.103,-0.715 0.093,-0.718 0.075,-0.731L0.062,-0.74C0.058,-0.743 0.055,-0.744 0.05,-0.744C0.046,-0.744 0.042,-0.741 0.04,-0.728C0.038,-0.717 0.003,-0.588 -0.007,-0.552C-0.009,-0.546 -0.006,-0.545 -0.003,-0.544L0.015,-0.539C0.02,-0.538 0.023,-0.539 0.025,-0.544C0.039,-0.576 0.069,-0.646 0.114,-0.66C0.153,-0.672 0.24,-0.672 0.272,-0.672L0.297,-0.672L0.297,-0.415Z" style="fill-rule:nonzero;stroke:black;stroke-width:0.03px;"/></g><g transform="matrix(333.814,0,0,333.814,1017.05,1035.17)"><path d="M0.362,-0.266C0.378,-0.266 0.39,-0.268 0.39,-0.282C0.39,-0.321 0.358,-0.429 0.243,-0.429C0.193,-0.429 0.143,-0.42 0.1,-0.376C0.047,-0.323 0.037,-0.256 0.037,-0.217C0.037,-0.147 0.046,-0.11 0.081,-0.059C0.118,-0.005 0.181,0.012 0.238,0.012C0.327,0.012 0.379,-0.057 0.397,-0.097C0.402,-0.108 0.4,-0.111 0.397,-0.112L0.384,-0.119C0.381,-0.12 0.377,-0.118 0.375,-0.114C0.358,-0.081 0.315,-0.046 0.254,-0.046C0.174,-0.046 0.112,-0.12 0.112,-0.218C0.112,-0.241 0.113,-0.257 0.115,-0.266L0.362,-0.266ZM0.119,-0.296C0.138,-0.37 0.18,-0.399 0.224,-0.399C0.289,-0.399 0.301,-0.333 0.301,-0.31C0.301,-0.301 0.293,-0.296 0.274,-0.296L0.119,-0.296Z" style="fill-rule:nonzero;stroke:black;stroke-width:0.03px;"/></g><g transform="matrix(333.814,0,0,333.814,1159.25,1035.17)"><path d="M0.228,-0.397C0.252,-0.397 0.273,-0.394 0.295,-0.353C0.31,-0.326 0.327,-0.313 0.35,-0.313C0.371,-0.313 0.386,-0.325 0.387,-0.348C0.387,-0.369 0.355,-0.429 0.251,-0.429C0.119,-0.429 0.037,-0.311 0.037,-0.194C0.037,-0.149 0.045,-0.107 0.082,-0.058C0.128,-0 0.184,0.012 0.237,0.012C0.305,0.012 0.369,-0.026 0.398,-0.059C0.403,-0.065 0.402,-0.068 0.398,-0.072L0.388,-0.082C0.385,-0.085 0.382,-0.084 0.38,-0.082C0.346,-0.05 0.32,-0.039 0.27,-0.039C0.236,-0.039 0.194,-0.047 0.161,-0.09C0.134,-0.127 0.11,-0.188 0.11,-0.242C0.11,-0.345 0.171,-0.397 0.228,-0.397Z" style="fill-rule:nonzero;stroke:black;stroke-width:0.03px;"/></g><g transform="matrix(333.814,0,0,333.814,1298.12,1035.17)"><path d="M0.098,-0.243C0.098,-0.178 0.098,-0.068 0.095,-0.049C0.093,-0.037 0.078,-0.033 0.062,-0.033L0.041,-0.033C0.03,-0.033 0.026,-0.032 0.026,-0.025L0.026,-0.007C0.026,-0 0.029,0.003 0.033,0.003C0.042,0.003 0.08,-0 0.13,-0C0.176,-0 0.217,0.003 0.225,0.003C0.231,0.003 0.233,-0.001 0.233,-0.008L0.233,-0.025C0.233,-0.031 0.229,-0.033 0.222,-0.033L0.192,-0.033C0.173,-0.033 0.17,-0.042 0.17,-0.074L0.17,-0.292C0.17,-0.31 0.181,-0.33 0.19,-0.341C0.218,-0.373 0.254,-0.383 0.283,-0.383C0.308,-0.383 0.329,-0.374 0.349,-0.355C0.378,-0.328 0.382,-0.288 0.382,-0.232L0.382,-0.151C0.382,-0.119 0.383,-0.066 0.382,-0.052C0.381,-0.035 0.361,-0.033 0.344,-0.033L0.321,-0.033C0.315,-0.033 0.314,-0.03 0.314,-0.025L0.314,-0.008C0.314,-0 0.316,0.003 0.323,0.003C0.332,0.003 0.368,-0 0.417,-0C0.474,-0 0.506,0.003 0.513,0.003C0.519,0.003 0.521,-0.001 0.521,-0.009L0.521,-0.024C0.521,-0.031 0.518,-0.033 0.51,-0.033L0.493,-0.033C0.472,-0.033 0.456,-0.036 0.456,-0.048C0.456,-0.067 0.454,-0.129 0.454,-0.185L0.454,-0.242C0.454,-0.296 0.456,-0.347 0.411,-0.389C0.383,-0.416 0.354,-0.429 0.312,-0.429C0.268,-0.429 0.21,-0.406 0.175,-0.364L0.17,-0.364L0.17,-0.428C0.17,-0.478 0.171,-0.681 0.173,-0.698C0.175,-0.715 0.171,-0.723 0.165,-0.723C0.157,-0.723 0.15,-0.719 0.142,-0.715L0.038,-0.66C0.029,-0.655 0.026,-0.654 0.026,-0.65L0.026,-0.641C0.026,-0.638 0.027,-0.637 0.033,-0.635L0.05,-0.629C0.086,-0.617 0.098,-0.606 0.098,-0.545L0.098,-0.243Z" style="fill-rule:nonzero;stroke:black;stroke-width:0.03px;"/></g><g transform="matrix(333.814,0,0,333.814,1478.05,1035.17)"><path d="M0.093,0.004L0.137,-0.139C0.232,-0.317 0.285,-0.399 0.308,-0.413C0.309,-0.413 0.332,-0.403 0.332,-0.403C0.301,-0.371 0.324,-0.337 0.354,-0.336C0.377,-0.335 0.399,-0.356 0.4,-0.385C0.401,-0.415 0.378,-0.444 0.342,-0.446C0.313,-0.447 0.298,-0.434 0.274,-0.403C0.245,-0.375 0.198,-0.285 0.144,-0.178L0.138,-0.178C0.173,-0.278 0.199,-0.365 0.199,-0.39C0.199,-0.417 0.163,-0.446 0.144,-0.446C0.106,-0.446 0.06,-0.396 0.019,-0.31L0.028,-0.302L0.099,-0.403L0.141,-0.398L0.078,-0.161L0.026,-0.001L0.093,0.004Z" style="fill-rule:nonzero;"/></g><g transform="matrix(333.814,0,0,333.814,1598.55,1035.17)"><path d="M0.139,0.013C0.205,0.013 0.263,-0.051 0.307,-0.12L0.297,-0.127C0.25,-0.061 0.212,-0.032 0.169,-0.032C0.118,-0.032 0.085,-0.073 0.085,-0.146C0.085,-0.169 0.089,-0.194 0.095,-0.217C0.278,-0.271 0.353,-0.306 0.353,-0.37C0.353,-0.413 0.312,-0.445 0.253,-0.445C0.138,-0.445 0.017,-0.283 0.017,-0.131C0.017,-0.053 0.065,0.013 0.139,0.013ZM0.1,-0.232L0.098,-0.233C0.116,-0.302 0.149,-0.366 0.178,-0.395C0.197,-0.412 0.218,-0.425 0.238,-0.425C0.267,-0.425 0.289,-0.403 0.289,-0.374C0.289,-0.31 0.247,-0.276 0.1,-0.232Z" style="fill-rule:nonzero;"/></g><g transform="matrix(333.814,0,0,333.814,2014.15,1035.17)"><path d="M0.359,0.016L0.496,-0.009L0.497,-0.02L0.447,-0.028C0.431,-0.03 0.427,-0.037 0.427,-0.056L0.427,-0.681L0.282,-0.652L0.28,-0.641L0.328,-0.633C0.354,-0.63 0.359,-0.62 0.359,-0.59L0.359,-0.415L0.357,-0.415C0.326,-0.43 0.293,-0.439 0.25,-0.439C0.134,-0.439 0.024,-0.348 0.024,-0.201C0.024,-0.075 0.103,0.013 0.204,0.013C0.268,0.013 0.318,-0.024 0.356,-0.068L0.359,-0.067L0.359,0.016ZM0.243,-0.034C0.157,-0.034 0.101,-0.118 0.101,-0.225C0.101,-0.337 0.152,-0.42 0.235,-0.42C0.287,-0.42 0.334,-0.384 0.359,-0.34L0.359,-0.091C0.329,-0.06 0.295,-0.034 0.243,-0.034Z" style="fill-rule:nonzero;"/></g><g transform="matrix(333.814,0,0,333.814,2179.72,1035.17)"><path d="M0.224,0.013C0.303,0.013 0.361,-0.033 0.403,-0.109L0.392,-0.115C0.355,-0.059 0.313,-0.039 0.256,-0.039C0.166,-0.039 0.098,-0.118 0.098,-0.234C0.098,-0.248 0.1,-0.27 0.102,-0.282L0.394,-0.28C0.395,-0.289 0.396,-0.297 0.396,-0.306C0.396,-0.383 0.339,-0.444 0.24,-0.444C0.114,-0.444 0.024,-0.337 0.024,-0.204C0.024,-0.081 0.11,0.013 0.224,0.013ZM0.104,-0.297C0.121,-0.37 0.175,-0.427 0.23,-0.427C0.291,-0.427 0.321,-0.368 0.32,-0.298L0.104,-0.297Z" style="fill-rule:nonzero;"/></g><g transform="matrix(333.814,0,0,333.814,2321.93,1035.17)"><path d="M0.224,0.013C0.303,0.013 0.361,-0.033 0.403,-0.109L0.392,-0.115C0.355,-0.059 0.313,-0.039 0.256,-0.039C0.166,-0.039 0.098,-0.118 0.098,-0.234C0.098,-0.248 0.1,-0.27 0.102,-0.282L0.394,-0.28C0.395,-0.289 0.396,-0.297 0.396,-0.306C0.396,-0.383 0.339,-0.444 0.24,-0.444C0.114,-0.444 0.024,-0.337 0.024,-0.204C0.024,-0.081 0.11,0.013 0.224,0.013ZM0.104,-0.297C0.121,-0.37 0.175,-0.427 0.23,-0.427C0.291,-0.427 0.321,-0.368 0.32,-0.298L0.104,-0.297Z" style="fill-rule:nonzero;"/></g><g transform="matrix(333.814,0,0,333.814,2464.47,1035.17)"><path d="M0.018,-0L0.222,-0L0.22,-0.015L0.193,-0.016C0.157,-0.019 0.151,-0.021 0.151,-0.029L0.151,-0.343C0.18,-0.368 0.218,-0.391 0.262,-0.391C0.318,-0.391 0.347,-0.362 0.347,-0.292L0.347,-0.031C0.347,-0.023 0.342,-0.018 0.313,-0.016L0.287,-0.015L0.284,-0L0.486,-0L0.483,-0.015L0.458,-0.016C0.417,-0.02 0.416,-0.023 0.416,-0.03L0.416,-0.313C0.416,-0.314 0.417,-0.338 0.417,-0.34C0.435,-0.367 0.482,-0.391 0.525,-0.391C0.583,-0.391 0.612,-0.362 0.612,-0.292L0.612,-0.031C0.612,-0.023 0.606,-0.018 0.577,-0.016L0.551,-0.015L0.548,-0L0.749,-0L0.746,-0.015L0.723,-0.016C0.682,-0.02 0.681,-0.023 0.681,-0.03L0.681,-0.312C0.681,-0.354 0.67,-0.391 0.649,-0.413C0.628,-0.434 0.603,-0.444 0.569,-0.444C0.505,-0.444 0.452,-0.397 0.412,-0.357L0.411,-0.358C0.407,-0.381 0.396,-0.401 0.384,-0.414C0.365,-0.432 0.338,-0.444 0.305,-0.444C0.241,-0.444 0.19,-0.396 0.152,-0.36L0.149,-0.361L0.152,-0.442L0.016,-0.408L0.015,-0.398L0.046,-0.393C0.076,-0.388 0.083,-0.378 0.083,-0.323L0.083,-0.031C0.083,-0.02 0.073,-0.018 0.047,-0.016L0.021,-0.015L0.018,-0Z" style="fill-rule:nonzero;"/></g><g transform="matrix(333.814,0,0,333.814,2716.83,1035.17)"><path d="M0.099,0.013C0.131,0.013 0.153,-0.012 0.153,-0.041C0.153,-0.069 0.131,-0.094 0.099,-0.094C0.067,-0.094 0.043,-0.069 0.043,-0.041C0.043,-0.012 0.067,0.013 0.099,0.013Z" style="fill-rule:nonzero;"/></g></g><g><path d="M1475.42,1058.5C1475.41,1058.54 1475.41,1058.58 1475.41,1058.63L1475.41,1060.38C1475.41,1060.86 1475.8,1061.25 1476.28,1061.25L1503.59,1061.25C1504.07,1061.25 1504.46,1060.86 1504.46,1060.38L1504.46,1058.63C1504.46,1058.58 1504.46,1058.54 1504.45,1058.5L1633.43,1058.5C1635.07,1058.5 1605.57,1070.56 1602.57,1070.49L1373.14,1070.31C1371.51,1070.31 1344.8,1058.5 1346.44,1058.5L1475.42,1058.5Z"/></g></g></g></svg>