<?xml version="1.0" encoding="UTF-8" standalone="no"?><!DOCTYPE svg PUBLIC "-//W3C//DTD SVG 1.1//EN" "http://www.w3.org/Graphics/SVG/1.1/DTD/svg11.dtd"><svg width="100%" height="100%" viewBox="0 0 2107 976" version="1.1" xmlns="http://www.w3.org/2000/svg" xmlns:xlink="http://www.w3.org/1999/xlink" xml:space="preserve" xmlns:serif="http://www.serif.com/" style="fill-rule:evenodd;clip-rule:evenodd;stroke-linejoin:round;stroke-miterlimit:2;"><g><g><g transform="matrix(0.736937,0,0,0.736937,595.176,-303.322)"><g transform="matrix(333.814,0,0,333.814,814.423,1035.17)"><path d="M0.093,0.004l0.044,-0.143c0.095,-0.178 0.148,-0.26 0.171,-0.274c0.001,0 0.024,0.01 0.024,0.01c-0.031,0.032 -0.008,0.066 0.022,0.067c0.023,0.001 0.045,-0.02 0.046,-0.049c0.001,-0.03 -0.022,-0.059 -0.058,-0.061c-0.029,-0.001 -0.044,0.012 -0.068,0.043c-0.029,0.028 -0.076,0.118 -0.13,0.225l-0.006,0c0.035,-0.1 0.061,-0.187 0.061,-0.212c-0,-0.027 -0.036,-0.056 -0.055,-0.056c-0.038,0 -0.084,0.05 -0.125,0.136l0.009,0.008l0.071,-0.101l0.042,0.005l-0.063,0.237l-0.052,0.16l0.067,0.005Z" style="fill-rule:nonzero;"/></g><g transform="matrix(333.814,0,0,333.814,934.93,1035.17)"><path d="M0.139,0.013c0.066,0 0.124,-0.064 0.168,-0.133l-0.01,-0.007c-0.047,0.066 -0.085,0.095 -0.128,0.095c-0.051,0 -0.084,-0.041 -0.084,-0.114c-0,-0.023 0.004,-0.048 0.01,-0.071c0.183,-0.054 0.258,-0.089 0.258,-0.153c-0,-0.043 -0.041,-0.075 -0.1,-0.075c-0.115,0 -0.236,0.162 -0.236,0.314c0,0.078 0.048,0.144 0.122,0.144Zm-0.039,-0.245l-0.002,-0.001c0.018,-0.069 0.051,-0.133 0.08,-0.162c0.019,-0.017 0.04,-0.03 0.06,-0.03c0.029,0 0.051,0.022 0.051,0.051c0,0.064 -0.042,0.098 -0.189,0.142Z" style="fill-rule:nonzero;"/></g><g transform="matrix(333.814,0,0,333.814,1350.53,1035.17)"><path d="M0.359,0.016l0.137,-0.025l0.001,-0.011l-0.05,-0.008c-0.016,-0.002 -0.02,-0.009 -0.02,-0.028l0,-0.625l-0.145,0.029l-0.002,0.011l0.048,0.008c0.026,0.003 0.031,0.013 0.031,0.043l0,0.175l-0.002,-0c-0.031,-0.015 -0.064,-0.024 -0.107,-0.024c-0.116,-0 -0.226,0.091 -0.226,0.238c0,0.126 0.079,0.214 0.18,0.214c0.064,-0 0.114,-0.037 0.152,-0.081l0.003,0.001l0,0.083Zm-0.116,-0.05c-0.086,-0 -0.142,-0.084 -0.142,-0.191c0,-0.112 0.051,-0.195 0.134,-0.195c0.052,-0 0.099,0.036 0.124,0.08l0,0.249c-0.03,0.031 -0.064,0.057 -0.116,0.057Z" style="fill-rule:nonzero;"/></g><g transform="matrix(333.814,0,0,333.814,1516.1,1035.17)"><path d="M0.224,0.013c0.079,0 0.137,-0.046 0.179,-0.122l-0.011,-0.006c-0.037,0.056 -0.079,0.076 -0.136,0.076c-0.09,0 -0.158,-0.079 -0.158,-0.195c0,-0.014 0.002,-0.036 0.004,-0.048l0.292,0.002c0.001,-0.009 0.002,-0.017 0.002,-0.026c0,-0.077 -0.057,-0.138 -0.156,-0.138c-0.126,0 -0.216,0.107 -0.216,0.24c-0,0.123 0.086,0.217 0.2,0.217Zm-0.12,-0.31c0.017,-0.073 0.071,-0.13 0.126,-0.13c0.061,0 0.091,0.059 0.09,0.129l-0.216,0.001Z" style="fill-rule:nonzero;"/></g><g transform="matrix(333.814,0,0,333.814,1658.3,1035.17)"><path d="M0.224,0.013c0.079,0 0.137,-0.046 0.179,-0.122l-0.011,-0.006c-0.037,0.056 -0.079,0.076 -0.136,0.076c-0.09,0 -0.158,-0.079 -0.158,-0.195c0,-0.014 0.002,-0.036 0.004,-0.048l0.292,0.002c0.001,-0.009 0.002,-0.017 0.002,-0.026c0,-0.077 -0.057,-0.138 -0.156,-0.138c-0.126,0 -0.216,0.107 -0.216,0.24c-0,0.123 0.086,0.217 0.2,0.217Zm-0.12,-0.31c0.017,-0.073 0.071,-0.13 0.126,-0.13c0.061,0 0.091,0.059 0.09,0.129l-0.216,0.001Z" style="fill-rule:nonzero;"/></g><g transform="matrix(333.814,0,0,333.814,1800.84,1035.17)"><path d="M0.018,-0l0.204,-0l-0.002,-0.015l-0.027,-0.001c-0.036,-0.003 -0.042,-0.005 -0.042,-0.013l-0,-0.314c0.029,-0.025 0.067,-0.048 0.111,-0.048c0.056,0 0.085,0.029 0.085,0.099l0,0.261c0,0.008 -0.005,0.013 -0.034,0.015l-0.026,0.001l-0.003,0.015l0.202,0l-0.003,-0.015l-0.025,-0.001c-0.041,-0.004 -0.042,-0.007 -0.042,-0.014l0,-0.283c0,-0.001 0.001,-0.025 0.001,-0.027c0.018,-0.027 0.065,-0.051 0.108,-0.051c0.058,0 0.087,0.029 0.087,0.099l0,0.261c0,0.008 -0.006,0.013 -0.035,0.015l-0.026,0.001l-0.003,0.015l0.201,0l-0.003,-0.015l-0.023,-0.001c-0.041,-0.004 -0.042,-0.007 -0.042,-0.014l0,-0.282c0,-0.042 -0.011,-0.079 -0.032,-0.101c-0.021,-0.021 -0.046,-0.031 -0.08,-0.031c-0.064,0 -0.117,0.047 -0.157,0.087l-0.001,-0.001c-0.004,-0.023 -0.015,-0.043 -0.027,-0.056c-0.019,-0.018 -0.046,-0.03 -0.079,-0.03c-0.064,0 -0.115,0.048 -0.153,0.084l-0.003,-0.001l0.003,-0.081l-0.136,0.034l-0.001,0.01l0.031,0.005c0.03,0.005 0.037,0.015 0.037,0.07l0,0.292c0,0.011 -0.01,0.013 -0.036,0.015l-0.026,0.001l-0.003,0.015Z" style="fill-rule:nonzero;"/></g></g><g><path d="M1469.76,444.134c-0.004,0.03 -0.007,0.061 -0.007,0.092l0,1.289c0,0.356 0.289,0.645 0.645,0.645l20.121,-0c0.356,-0 0.644,-0.289 0.644,-0.645l0,-1.289c0,-0.031 -0.002,-0.062 -0.006,-0.092l95.052,-0c1.207,-0 -20.533,8.883 -22.747,8.837l-169.071,-0.135c-1.206,0 -20.885,-8.702 -19.678,-8.702l95.047,-0Z"/></g></g><g><path d="M1225.98,603.94c10.251,0 17.777,-5.969 23.227,-15.831l-1.427,-0.778c-4.801,7.267 -10.251,9.862 -17.648,9.862c-11.678,-0 -20.502,-10.251 -20.502,-25.304c0,-1.816 0.26,-4.671 0.519,-6.228l37.89,0.259c0.13,-1.167 0.26,-2.206 0.26,-3.373c-0,-9.992 -7.396,-17.907 -20.243,-17.907c-16.35,-0 -28.028,13.884 -28.028,31.142c-0,15.961 11.159,28.158 25.952,28.158Zm-15.571,-40.226c2.206,-9.472 9.213,-16.868 16.35,-16.868c7.915,-0 11.808,7.655 11.678,16.739l-28.028,0.129Z" style="fill-rule:nonzero;"/><path d="M1281,604.07c13.495,0 21.54,-8.434 21.54,-17.907c-0,-10.9 -8.305,-14.403 -16.999,-17.518c-8.045,-2.854 -13.625,-5.19 -13.625,-12.067c0,-5.84 4.153,-9.732 11.16,-9.732c4.022,-0 7.266,1.686 9.472,3.373l5.321,10.9l2.205,0l-0.778,-15.571l-4.152,1.298c-3.374,-1.298 -7.137,-2.206 -11.679,-2.206c-10.9,-0 -18.815,7.007 -18.815,16.22c-0,9.991 8.045,13.754 15.831,16.479c8.564,2.855 14.403,6.099 14.403,13.236c0,6.618 -5.45,11.289 -12.976,11.289c-5.58,0 -10.511,-3.244 -13.755,-8.953l-2.725,-7.526l-2.206,-0l1.168,15.701c4.801,1.816 10.251,2.984 16.61,2.984Z" style="fill-rule:nonzero;"/><path d="M1335.89,604.07c6.359,0 11.809,-4.412 16.61,-9.083l-0.779,-1.298c-3.114,2.336 -6.488,4.542 -11.029,4.542c-5.58,-0 -8.954,-2.855 -8.824,-9.083c-0,-0.13 0.908,-37.631 0.908,-37.631l17.648,-0l1.557,-4.931l-19.205,0l0.13,-11.419l-1.557,-0.389l-17.388,14.533l-0.389,2.206l10.121,0.259l-0.649,38.669c-0.13,10.122 5.58,13.625 12.846,13.625Z" style="fill-rule:nonzero;"/><path d="M1403.49,603.811c4.801,-0 8.694,-4.802 11.419,-8.175l-1.038,-1.168c-2.076,1.946 -4.153,3.633 -6.099,3.633c-2.595,0 -4.023,-1.427 -3.893,-5.32l1.298,-27.639c0.778,-15.961 -4.801,-20.502 -16.48,-20.502c-10.121,-0 -24.525,8.045 -24.525,14.403c0,3.114 2.466,5.061 5.71,5.061c3.503,-0 5.709,-2.466 5.709,-5.191c0,-3.244 -2.984,-5.32 -2.984,-6.228c-0,-1.428 5.58,-4.412 10.77,-4.412c7.396,-0 13.236,3.763 12.846,16.869l-0.129,4.412c-24.006,5.839 -31.403,11.938 -31.403,21.151c0,7.266 6.099,12.976 13.885,12.976c6.228,-0 11.678,-4.412 16.479,-9.343l0.26,0.13c0.259,6.099 3.633,9.343 8.175,9.343Zm-20.502,-5.969c-5.191,-0 -9.213,-3.634 -9.213,-9.603c-0,-6.877 4.152,-12.197 22.189,-16.609l-0.649,20.372c-3.893,3.634 -7.656,5.84 -12.327,5.84Z" style="fill-rule:nonzero;"/><path d="M1428.54,604.849l1.038,-0l5.969,-4.931l0.259,-0c3.893,2.076 10.381,4.152 16.48,4.152c14.533,0 28.677,-12.457 28.677,-31.402c0,-16.09 -10.121,-27.38 -23.227,-27.38c-8.305,0 -14.923,4.931 -19.983,10.771l-0.39,-0.26l0,-41.913l-17.777,4.282l-0.13,1.428l5.061,1.038c3.244,0.649 4.023,1.816 4.023,5.709l-0,78.506Zm25.173,-3.374c-6.877,-0 -12.976,-4.672 -16.35,-10.381l0,-31.921c3.893,-4.153 8.954,-7.656 15.442,-7.656c10.9,-0 18.167,10.511 18.167,24.265c-0,14.793 -6.748,25.693 -17.259,25.693Z" style="fill-rule:nonzero;"/><path d="M1493.16,602.253l26.211,0l-0.389,-1.946l-3.244,-0.13c-4.801,-0.389 -5.32,-0.649 -5.32,-1.687l-0,-84.474l-17.907,4.282l-0.13,1.298l4.931,1.038c3.374,0.649 4.152,1.816 4.152,7.915l0,69.682c0,1.427 -1.167,1.687 -4.541,1.946l-3.504,0.13l-0.259,1.946Z" style="fill-rule:nonzero;"/><path d="M1542.08,533.091c4.282,-0 6.358,-3.763 6.358,-6.618c-0,-2.855 -1.947,-6.618 -6.358,-6.618c-4.412,0 -6.489,3.763 -6.489,6.748c0,2.725 2.077,6.488 6.489,6.488Zm-11.809,69.162l26.471,0l-0.389,-1.946l-3.244,-0.13c-4.671,-0.389 -5.32,-0.649 -5.32,-1.687l-0,-53.591l-17.518,4.412l-0.259,1.298l4.022,0.648c3.893,0.649 4.801,1.947 4.801,8.954l0,38.02c0,1.427 -1.297,1.687 -4.541,1.946l-3.633,0.13l-0.39,1.946Z" style="fill-rule:nonzero;"/><path d="M1586.98,604.07c13.495,0 21.54,-8.434 21.54,-17.907c0,-10.9 -8.305,-14.403 -16.999,-17.518c-8.045,-2.854 -13.624,-5.19 -13.624,-12.067c-0,-5.84 4.152,-9.732 11.159,-9.732c4.023,-0 7.267,1.686 9.472,3.373l5.321,10.9l2.206,0l-0.779,-15.571l-4.152,1.298c-3.374,-1.298 -7.137,-2.206 -11.679,-2.206c-10.9,-0 -18.815,7.007 -18.815,16.22c-0,9.991 8.045,13.754 15.831,16.479c8.564,2.855 14.403,6.099 14.403,13.236c0,6.618 -5.45,11.289 -12.976,11.289c-5.58,0 -10.511,-3.244 -13.755,-8.953l-2.725,-7.526l-2.205,-0l1.167,15.701c4.802,1.816 10.251,2.984 16.61,2.984Z" style="fill-rule:nonzero;"/><path d="M1620.71,602.253l26.341,0l-0.389,-1.946l-3.374,-0.13c-4.801,-0.389 -5.45,-0.649 -5.45,-1.687l0,-40.226c4.023,-3.633 9.473,-6.747 15.701,-6.747c7.526,-0 11.679,3.763 11.679,12.976l-0,33.738c-0,1.038 -0.649,1.687 -4.542,1.946l-3.504,0.13l-0.389,1.946l26.342,0l-0.39,-1.946l-3.114,-0.13c-5.32,-0.389 -5.45,-0.908 -5.45,-1.816l0,-36.852c0,-5.58 -1.298,-9.862 -4.282,-12.977c-2.595,-2.465 -6.099,-3.763 -10.121,-3.763c-8.694,0 -16.091,6.359 -21.67,10.9l-0.26,-0.129l0,-41.524l-17.647,4.282l-0.13,1.298l4.801,1.038c3.374,0.649 4.023,1.816 4.023,5.969l-0,71.628c-0,1.427 -1.298,1.687 -4.542,1.946l-3.244,0.13l-0.389,1.946Z" style="fill-rule:nonzero;"/><path d="M1719.98,603.94c10.251,0 17.777,-5.969 23.227,-15.831l-1.428,-0.778c-4.801,7.267 -10.251,9.862 -17.647,9.862c-11.678,-0 -20.502,-10.251 -20.502,-25.304c-0,-1.816 0.259,-4.671 0.519,-6.228l37.89,0.259c0.13,-1.167 0.26,-2.206 0.26,-3.373c-0,-9.992 -7.397,-17.907 -20.243,-17.907c-16.35,-0 -28.029,13.884 -28.029,31.142c0,15.961 11.16,28.158 25.953,28.158Zm-15.572,-40.226c2.206,-9.472 9.213,-16.868 16.35,-16.868c7.916,-0 11.808,7.655 11.679,16.739l-28.029,0.129Z" style="fill-rule:nonzero;"/><path d="M1799.91,604.33l17.778,-3.244l0.129,-1.428l-6.488,-1.038c-2.076,-0.259 -2.595,-1.168 -2.595,-3.633l0,-81.101l-18.815,3.763l-0.26,1.428l6.229,1.038c3.374,0.389 4.022,1.687 4.022,5.58l0,22.708l-0.259,-0c-4.023,-1.947 -8.305,-3.115 -13.885,-3.115c-15.052,0 -29.326,11.809 -29.326,30.883c0,16.35 10.252,27.769 23.357,27.769c8.305,0 14.793,-4.801 19.724,-10.51l0.389,0.129l0,10.771Zm-15.052,-6.488c-11.159,-0 -18.426,-10.9 -18.426,-24.785c0,-14.533 6.618,-25.303 17.388,-25.303c6.748,-0 12.846,4.671 16.09,10.381l0,32.31c-3.892,4.023 -8.304,7.397 -15.052,7.397Z" style="fill-rule:nonzero;"/><path d="M1858.43,602.253l47.623,0l4.282,-23.097l-1.817,-0.13l-1.038,2.855c-3.503,9.213 -6.358,12.587 -15.182,12.587l-24.525,-0l0,-0.26c21.281,-17.128 32.96,-26.082 32.96,-38.409c-0,-9.213 -7.786,-16.22 -17.518,-16.22c-10.122,-0 -17.907,6.877 -23.227,17.388l1.427,0.778c4.412,-7.526 9.732,-11.159 16.999,-11.159c8.045,0 13.365,5.839 13.365,13.755c0,10.77 -8.434,18.945 -33.738,39.317l0.389,2.595Z" style="fill-rule:nonzero;"/><path d="M1954.07,603.811c17.648,-0 30.624,-13.236 30.624,-32.181c-0,-18.686 -13.106,-32.181 -30.364,-32.181c-17.518,0 -30.883,13.625 -30.883,32.44c-0,18.686 13.106,31.922 30.623,31.922Zm0.39,-2.596c-13.625,0 -21.281,-12.457 -21.281,-30.753c-0,-15.312 8.434,-28.028 20.761,-28.028c12.977,-0 21.151,12.846 21.151,29.974c0,15.961 -8.304,28.807 -20.631,28.807Z" style="fill-rule:nonzero;"/><path d="M1997.54,602.253l47.622,0l4.282,-23.097l-1.816,-0.13l-1.038,2.855c-3.504,9.213 -6.359,12.587 -15.182,12.587l-24.525,-0l-0,-0.26c21.281,-17.128 32.959,-26.082 32.959,-38.409c0,-9.213 -7.785,-16.22 -17.518,-16.22c-10.121,-0 -17.907,6.877 -23.227,17.388l1.428,0.778c4.411,-7.526 9.732,-11.159 16.998,-11.159c8.045,0 13.366,5.839 13.366,13.755c-0,10.77 -8.435,18.945 -33.738,39.317l0.389,2.595Z" style="fill-rule:nonzero;"/><path d="M2073.71,628.335c18.426,0 32.829,-14.014 32.829,-28.807c0,-12.457 -8.953,-21.54 -23.746,-21.151l0,-0.259c9.732,-6.099 18.167,-12.198 18.167,-22.189c-0,-9.083 -7.527,-16.35 -17.648,-16.35c-10.121,-0 -18.166,6.488 -23.227,17.128c-0.13,0 1.297,0.909 1.427,0.909c4.023,-7.397 9.473,-11.16 16.739,-11.16c8.305,0 13.755,5.969 13.755,13.755c0,10.9 -9.732,15.96 -24.655,25.693l0.779,1.557c3.244,-1.298 7.137,-2.466 11.03,-2.466c11.938,0 18.815,8.045 18.815,19.335c0,13.365 -10.121,21.021 -19.983,21.021c-1.947,-0 -4.931,-0.908 -5.32,-0.908c0.648,-5.84 -2.596,-10.9 -7.526,-10.9c-3.374,-0 -5.969,2.465 -5.969,5.839c-0,4.412 4.801,8.953 14.533,8.953Z" style="fill-rule:nonzero;"/></g></g><g><path d="M194.785,209.939c-0,11.823 -0,202.863 -1.867,220.909c-0.623,7.467 -8.09,14.935 -20.536,14.935l-42.315,-0c-3.733,-0 -4.356,1.867 -4.356,6.223l0,11.823c0,3.734 0.623,6.223 5.601,6.223c8.712,-0 34.848,-1.867 94.587,-1.867c60.983,-0 80.896,1.867 87.119,1.867c5.6,-0 6.223,-1.867 6.223,-4.978l-0,-13.068c-0,-4.356 -0.623,-6.223 -6.223,-6.223l-39.204,-0c-14.935,-0 -19.913,-9.334 -21.157,-24.891c-0.623,-10.579 -0.623,-184.818 -0.623,-193.53l0,-177.349l17.424,-0c30.492,-0 88.986,1.244 107.655,10.578c20.535,9.957 39.203,57.872 44.182,69.696c1.866,4.356 2.489,4.978 4.978,4.356l9.956,-2.489c3.112,-0.623 4.356,-1.867 3.734,-4.979c-4.978,-27.38 -16.802,-104.543 -18.046,-112.01c-1.245,-8.09 -2.489,-9.957 -5.601,-9.957c-2.489,0 -4.356,0.623 -7.467,2.489l-11.823,7.468c-10.579,6.223 -18.669,8.089 -32.359,8.712c-30.492,1.244 -57.25,3.733 -125.078,3.733l-29.87,0c-58.494,0 -84.63,-2.489 -117.611,-3.733c-18.046,-0.623 -24.269,-2.489 -35.47,-10.579l-8.089,-5.601c-2.489,-1.866 -4.356,-2.489 -7.468,-2.489c-2.489,0 -4.978,1.867 -6.223,9.957c-1.244,6.845 -23.024,87.119 -29.247,109.521c-1.244,3.734 0.623,4.356 2.489,4.978l11.201,3.112c3.112,0.622 4.979,-0 6.223,-3.112c8.712,-19.913 27.381,-63.472 55.383,-72.184c24.269,-7.467 78.408,-7.467 98.321,-7.467l15.557,-0l-0,159.926Z" style="fill-rule:nonzero;stroke:#000;stroke-width:10.42px;"/><path d="M665.77,47.523l110.766,2.49c16.802,0.622 34.226,8.089 47.293,16.801c14.935,9.334 60.984,68.451 62.228,70.94c0.623,1.245 3.112,3.111 4.979,1.867l9.334,-4.978c2.489,-1.245 2.489,-3.112 1.867,-5.601l-31.737,-100.187c-0.622,-1.867 -1.866,-3.111 -4.978,-3.111c-3.111,-0 -14.935,1.244 -24.891,1.244c-61.606,0 -123.212,0.622 -184.817,0.622l-27.381,0c-41.07,0 -62.85,-1.866 -76.54,-1.866c-3.112,-0 -4.356,1.244 -4.356,3.111l-0,16.802c-0,3.733 1.867,4.356 4.978,4.356l22.402,-0c23.025,-0 29.247,4.355 31.737,24.268c0.622,6.223 1.866,84.008 1.866,135.658l0,208.464c0,23.024 -2.489,27.38 -31.114,27.38l-24.891,-0c-4.356,-0 -6.223,0.622 -6.223,3.111l0,16.802c0,3.111 1.867,4.356 5.601,4.356c5.6,-0 13.69,-0.622 26.758,-1.245c12.446,0 29.869,-0.622 52.894,-0.622c97.075,-0 157.437,0.622 194.774,0.622c37.336,0.623 51.027,1.245 54.138,1.245c7.467,-0 11.823,-3.734 13.69,-9.334l32.981,-91.476c1.867,-4.978 1.867,-6.845 -1.245,-8.712l-9.956,-5.6c-3.734,-1.867 -5.601,0.622 -7.467,3.734c-8.712,14.312 -43.56,59.116 -51.027,65.339c-16.18,13.69 -43.56,20.535 -54.139,21.78c-13.068,1.244 -44.182,1.867 -54.761,1.867c-15.557,-0 -33.603,-1.867 -46.048,-4.356c-19.291,-3.734 -34.848,-16.18 -35.47,-48.538c-0,-12.446 -1.245,-72.807 -1.245,-106.41l0,-38.581c9.957,-0 52.894,-0 82.141,3.111c16.179,1.867 23.025,11.201 26.758,24.269c1.867,6.845 5.601,21.157 6.845,29.247c0.623,4.356 1.867,6.223 4.979,5.601l13.69,-1.867c2.489,-0.623 3.733,-1.867 3.733,-4.979c-1.244,-13.067 -3.733,-42.937 -3.733,-64.717c-0,-9.334 -0,-60.361 1.867,-70.94c0.622,-2.489 -0.623,-4.978 -3.734,-4.978l-15.557,-0.622c-2.489,-0 -4.356,1.244 -4.356,4.356c-0.622,11.823 -3.111,24.269 -4.978,30.492c-5.601,19.29 -10.579,24.268 -28.625,27.38c-7.468,1.244 -74.052,3.734 -79.03,3.734l0,-182.329Z" style="fill-rule:nonzero;stroke:#000;stroke-width:10.42px;"/><path d="M283.932,970.399c87.741,-0 148.102,-50.405 185.439,-104.544c1.867,-3.111 0.623,-4.355 -1.244,-5.6l-8.09,-6.223c-1.867,-1.867 -3.111,-1.244 -4.978,1.867c-28.625,40.448 -83.386,79.03 -153.703,79.03c-41.693,-0 -77.163,-4.979 -119.478,-52.272c-48.538,-53.516 -59.739,-123.834 -59.739,-159.926c-0.622,-90.853 44.182,-189.796 155.57,-189.796c49.16,0 82.141,21.158 108.277,47.916c26.135,26.758 39.826,56.628 48.538,77.163c1.866,4.978 3.111,5.6 6.222,4.978l9.335,-2.489c2.489,-0.622 3.111,-3.111 2.489,-6.223c-3.112,-17.424 -15.557,-108.899 -15.557,-120.722c-0,-8.712 -1.245,-9.957 -6.845,-9.957c-5.601,0 -6.845,0 -8.09,3.734l-4.978,18.046c-1.245,4.356 -4.356,4.978 -12.446,0c-22.402,-13.068 -69.073,-34.225 -125.701,-34.225c-67.828,-0 -123.833,29.247 -155.57,62.85c-44.804,47.293 -63.472,107.032 -63.472,164.904c-0,59.739 21.78,131.924 66.584,174.239c37.337,34.225 84.008,57.25 157.437,57.25Z" style="fill-rule:nonzero;stroke:#000;stroke-width:10.42px;"/><path d="M587.825,750.111c0,16.18 -1.244,136.902 -1.867,166.149c0,14.935 -1.867,29.87 -17.424,29.87l-36.714,-0c-2.489,-0 -4.356,1.244 -4.356,3.733l-0,16.18c-0,3.111 1.244,4.356 4.356,4.356c14.312,-0 32.981,-1.867 86.497,-1.867c44.804,-0 66.584,1.867 78.407,1.867c3.734,-0 4.978,-1.245 4.978,-4.356l0,-15.557c0,-3.112 -1.244,-4.356 -4.978,-4.356l-30.492,-0c-13.067,-0 -19.29,-6.223 -19.913,-21.158c-0.622,-43.56 -1.244,-139.391 -1.244,-156.192l-0,-13.068c-0,-4.356 1.867,-6.223 8.712,-6.223l227.754,0c10.579,0 13.691,0.622 13.691,7.467l-0,8.712c-0,22.402 -1.245,122.59 -1.867,151.837c-0,16.801 -1.867,28.625 -16.802,28.625l-39.203,-0c-3.734,-0 -4.979,1.244 -4.979,4.356l0,15.557c0,2.489 1.245,4.356 3.734,4.356c18.668,-0 38.581,-1.867 92.72,-1.867c45.426,-0 66.584,1.867 78.407,1.867c3.734,-0 4.978,-1.245 4.978,-4.979l0,-14.934c0,-3.112 -1.244,-4.356 -5.6,-4.356l-27.381,-0c-18.668,-0 -24.891,-8.712 -24.891,-31.114c-0.622,-35.47 -1.867,-153.704 -1.867,-173.617l0,-21.157c0,-23.025 1.245,-128.19 1.245,-136.902c-0,-22.402 1.867,-32.981 19.913,-32.981l28.003,0c3.733,0 4.978,-0.622 4.978,-4.356l-0,-14.934c-0,-3.734 -0.622,-4.979 -4.978,-4.979c-11.824,0 -37.337,1.867 -79.652,1.867c-42.315,0 -69.073,-1.867 -82.141,-1.867c-3.112,0 -3.734,1.245 -3.734,3.734l-0,16.179c-0,3.112 1.245,4.356 4.356,4.356l32.359,0c18.046,0 20.535,11.824 20.535,31.737c-0,7.467 1.867,93.964 1.867,129.434l-0,6.223c-0,8.089 -3.112,9.334 -12.446,9.334l-230.244,-0c-5.6,-0 -7.467,-1.867 -7.467,-4.978l-0,-10.579c-0,-34.848 1.244,-116.989 1.244,-125.701c0,-24.891 3.112,-35.47 24.269,-35.47l31.737,0c3.733,0 4.978,-1.244 4.978,-4.978l-0,-16.179c-0,-2.489 -1.867,-3.112 -6.223,-3.112c-11.823,0 -34.225,1.867 -82.763,1.867c-54.761,0 -74.674,-1.867 -87.119,-1.867c-3.112,0 -4.979,1.245 -4.979,4.356l0,14.935c0,3.734 0.623,4.978 3.734,4.978l29.247,0c23.025,0 27.381,8.712 27.381,40.449c-0,9.956 1.244,93.964 1.244,132.545l0,26.758Z" style="fill-rule:nonzero;stroke:#000;stroke-width:10.42px;"/></g><path d="M1087.53,463.47c29.438,0 49.676,-22.998 49.676,-49.676c0,-25.758 -20.238,-48.757 -49.676,-48.757c-29.438,0 -51.517,22.999 -51.517,48.757c0,26.678 22.079,49.676 51.517,49.676Z" style="fill-rule:nonzero;"/></svg>